<?xml version="1.0" standalone="no"?>
<!DOCTYPE svg PUBLIC "-//W3C//DTD SVG 20010904//EN"
 "http://www.w3.org/TR/2001/REC-SVG-20010904/DTD/svg10.dtd">
<svg version="1.0" xmlns="http://www.w3.org/2000/svg"
 width="700.000000pt" height="700.000000pt" viewBox="0 0 700.000000 700.000000"
 preserveAspectRatio="xMidYMid meet">
<metadata>
Created by potrace 1.14, written by Peter Selinger 2001-2017
</metadata>
<g transform="translate(0.000000,700.000000) scale(0.100000,-0.100000)"
fill="#000000" stroke="none">
<path d="M3545 6857 c-14 -10 -66 -16 -170 -20 -82 -4 -159 -9 -170 -11 -11
-2 -42 -7 -70 -10 -81 -11 -156 -24 -225 -41 -3 -1 -21 -5 -40 -9 -95 -21
-258 -73 -369 -117 -198 -79 -341 -155 -528 -281 -39 -26 -78 -48 -87 -48 -9
0 -25 -9 -37 -21 -11 -11 -30 -22 -41 -24 -12 -3 -31 -13 -42 -23 -12 -11 -28
-21 -36 -24 -28 -10 -177 -126 -232 -180 -114 -113 -235 -275 -324 -433 -242
-434 -323 -648 -339 -904 -3 -51 -7 -97 -10 -100 -2 -4 -6 -25 -9 -47 -2 -21
-12 -60 -21 -86 -8 -26 -15 -67 -15 -90 5 -342 9 -520 14 -550 3 -21 8 -53 10
-72 2 -19 10 -68 16 -109 l12 -75 -28 -38 c-27 -35 -29 -44 -28 -123 0 -78 6
-171 19 -306 20 -202 36 -364 40 -385 2 -14 6 -50 10 -80 22 -180 26 -210 55
-370 42 -230 78 -354 125 -430 37 -59 270 -259 555 -475 57 -44 112 -87 122
-95 9 -8 111 -85 228 -170 l211 -155 -6 -75 c-4 -41 -8 -88 -10 -105 -2 -16
-7 -61 -10 -100 -4 -38 -8 -83 -10 -100 -2 -16 -7 -61 -10 -100 -4 -38 -8 -81
-10 -95 -2 -14 -7 -61 -11 -105 -4 -44 -8 -89 -9 -100 -2 -11 -6 -53 -9 -93
l-8 -72 527 0 527 0 -6 70 c-4 39 -9 76 -11 83 -4 10 -12 83 -49 412 -3 22 -8
76 -12 120 -3 44 -8 94 -10 110 -2 17 -6 118 -9 225 -7 214 -14 265 -51 327
-25 44 -30 58 -15 49 4 -3 28 -8 52 -11 24 -3 63 -8 86 -11 126 -17 217 -21
393 -19 213 3 282 10 314 30 19 11 57 19 161 30 17 2 63 11 103 19 92 20 89
20 66 -6 -74 -85 -112 -185 -111 -298 0 -76 -10 -273 -18 -340 -1 -14 -6 -59
-10 -100 -4 -41 -9 -82 -10 -90 -2 -9 -6 -46 -9 -82 -4 -37 -9 -76 -11 -86 -2
-11 -6 -42 -10 -69 -12 -86 -11 -80 -51 -331 l-5 -32 518 2 c338 2 517 6 517
13 -1 6 -5 68 -9 140 -4 72 -9 148 -11 170 -2 22 -6 90 -9 150 -4 61 -8 126
-10 145 -2 19 -6 96 -10 170 l-7 135 183 135 c186 137 498 377 600 459 30 26
75 62 99 81 140 113 227 201 251 255 11 24 18 46 17 48 -2 2 2 10 9 18 23 28
84 307 113 520 6 41 12 84 14 95 2 10 7 50 11 87 3 37 8 76 10 85 3 19 12 99
20 190 7 68 13 135 20 200 13 141 18 215 19 288 1 70 -2 85 -25 120 -21 32
-24 45 -17 74 4 19 10 55 14 80 3 25 7 47 9 50 19 32 29 657 12 770 -5 30 -20
107 -35 170 -14 63 -27 142 -29 175 -5 112 -76 345 -168 549 -263 582 -747
1028 -1385 1276 -47 18 -94 36 -105 41 -62 26 -289 94 -385 115 -102 22 -112
24 -170 29 -30 3 -75 7 -100 10 -24 3 -96 8 -160 11 -90 4 -119 2 -135 -9z
m2136 -4432 c-17 -37 -52 -97 -77 -133 -46 -66 -223 -247 -300 -308 -59 -47
-234 -165 -234 -158 0 3 10 14 23 24 58 46 337 279 359 301 39 37 120 147 163
219 45 76 86 132 92 126 2 -2 -10 -34 -26 -71z"/>
</g>
</svg>
